inDegrees=no
num_controls=7
num_derivatives=13
num_iterations=175
num_multipliers=7
num_parameters=0
num_slacks=7
num_states=26
objective=5.713635
objective_accelerations=0.648011
objective_balance=0.088926
objective_effort=0.504888
objective_height=4.389636
objective_ligament=0.082173
solver_duration=1967.251065
status=Solve_Succeeded
success=true
DataType=double
version=3
OpenSimVersion=4.4-2022-07-23-0e9fedc
endheader
time	/jointset/ground_pelvis/pelvis_tilt/value	/jointset/ground_pelvis/pelvis_tx/value	/jointset/ground_pelvis/pelvis_ty/value	/jointset/hip_l/hip_flexion_l/value	/jointset/hip_l/hip_adduction_l/value	/jointset/hip_l/hip_rotation_l/value	/jointset/back/lumbar_extension/value	/jointset/patellofemoral_l/patellar_flexion_l/value	/jointset/knee_l/knee_flexion_l/value	/jointset/knee_l/knee_adduction_l/value	/jointset/knee_l/knee_rotation_l/value	/jointset/ankle_l/ankle_angle_l/value	/jointset/subtalar_l/subtalar_angle_l/value	/jointset/ground_pelvis/pelvis_tilt/speed	/jointset/ground_pelvis/pelvis_tx/speed	/jointset/ground_pelvis/pelvis_ty/speed	/jointset/hip_l/hip_flexion_l/speed	/jointset/hip_l/hip_adduction_l/speed	/jointset/hip_l/hip_rotation_l/speed	/jointset/back/lumbar_extension/speed	/jointset/patellofemoral_l/patellar_flexion_l/speed	/jointset/knee_l/knee_flexion_l/speed	/jointset/knee_l/knee_adduction_l/speed	/jointset/knee_l/knee_rotation_l/speed	/jointset/ankle_l/ankle_angle_l/speed	/jointset/subtalar_l/subtalar_angle_l/speed	/forceset/tau_hip_flexion_l	/forceset/tau_hip_adduction_l	/forceset/tau_hip_rotation_l	/forceset/tau_knee_flexion_l	/forceset/tau_ankle_angle_l	/forceset/tau_subtalar_angle_l	/forceset/tau_lumbar_extension	lambda_cid13_p0	lambda_cid13_p1	lambda_cid13_p2	lambda_cid13_p3	lambda_cid13_p4	lambda_cid13_p5	lambda_cid14_p0	/jointset/ground_pelvis/pelvis_tilt/accel	/jointset/ground_pelvis/pelvis_tx/accel	/jointset/ground_pelvis/pelvis_ty/accel	/jointset/hip_l/hip_flexion_l/accel	/jointset/hip_l/hip_adduction_l/accel	/jointset/hip_l/hip_rotation_l/accel	/jointset/back/lumbar_extension/accel	/jointset/patellofemoral_l/patellar_flexion_l/accel	/jointset/knee_l/knee_flexion_l/accel	/jointset/knee_l/knee_adduction_l/accel	/jointset/knee_l/knee_rotation_l/accel	/jointset/ankle_l/ankle_angle_l/accel	/jointset/subtalar_l/subtalar_angle_l/accel	gamma_cid13_p0	gamma_cid13_p1	gamma_cid13_p2	gamma_cid13_p3	gamma_cid13_p4	gamma_cid13_p5	gamma_cid14_p0
0	-0.1599942531094449	0.05851037350606448	0.8979929750349449	0.3774920279260975	-0.2592214079669387	-0.2715359116022565	-0.0126506700172305	0.03223623128434089	0.03223623128433527	-0.1745329197628226	0.173158512777186	-0.04231376238535053	-0.009362480830840354	0	0	0	0	0	0	0	0	0	0	0	0	0	0.1503115690271824	-0.07358477918059349	-0.04858410694958299	-0.2848019582476093	0.260268020306732	-0.03842306677780975	-0.09857370274274582	41.19077778566831	2.988544299172248	6.530139155401003	15.60082787715154	-587.7569920386173	-71.46073806030903	-39.03036814729087	-5.152484395521351	-2.740319603341623	-1.225173554224333	13.74341867549996	-1.157017527133453	2.716457734824657	-6.114884877074319	8.314707345168392	8.314707345167822	0.0572357240016445	0.1189397170497601	-0.2706070960945091	-1.24870756347566	-1.073381998507685e-08	1.013618228429784e-07	4.179123130749436e-08	-8.182590508392167e-09	1.065735843795836e-07	5.635857687503676e-08	-5.686621400019667e-09
0.01	-0.160243917024505	0.05837522307811725	0.8979330306135768	0.378162896366113	-0.2592793588329906	-0.2714005081339546	-0.01295754216021708	0.03264270703781243	0.03264270703786337	-0.1745325554971728	0.1731618985077261	-0.04232861601403832	-0.00942529960478293	-0.0496730368868911	-0.02688363246904932	-0.01194294245854209	0.1335212624624397	-0.01153811839312013	0.02697005686707754	-0.06094904046480324	0.08095874954559384	0.08095874954559425	6.748129369214351e-05	0.0006732807199170532	-0.002909793474074395	-0.01249650010684068	0.1445428685029185	-0.07971190060974404	-0.04762505863028069	-0.2793139779466648	0.2531506939997519	-0.02888396592735829	-0.09363735168536673	39.27126263939596	-0.6284128256513469	6.890004013650874	15.50397238473961	-588.7866121097361	-78.22446871030152	-39.04215612199796	-4.835758036128237	-2.640418736751134	-1.171942005015424	13.058611563441	-1.14441490506884	2.670680257613021	-6.021105411183041	7.935999723153357	7.935999723153748	-0.01928380044608623	0.04093991261040415	-0.292025493629911	-1.240053789227903	-3.30096853356178e-08	1.096399500373203e-07	8.232352593825723e-08	6.885075532677422e-09	-2.061427008842797e-08	5.60852417112866e-08	-1.323363547598998e-08
0.02	-0.1609825202486092	0.05797562959186619	0.8977550392849543	0.3801494037371206	-0.2594511320649049	-0.2709987239779875	-0.01386114306384741	0.03384867847959949	0.03384867847959914	-0.1745316740419085	0.1731719005779813	-0.04237073958157997	-0.009611069890781965	-0.09778786180799767	-0.0528886116607661	-0.02360938145085691	0.263127786197862	-0.02276447317295754	0.053276137532717	-0.1193457521295807	0.1598991376471331	0.1598991376471375	0.0001034372873756721	0.001323267965751995	-0.005453987770790001	-0.02459030241128987	0.1387741679787529	-0.08583902203892647	-0.04666601031155539	-0.2738259976455575	0.2460333676927969	-0.01934486507692424	-0.08870100062791705	37.42601637544024	-4.257710581691381	7.251081221082194	15.35263946304078	-588.6302695278811	-84.89578918148874	-39.07695149351275	-4.84084200236463	-2.564588947874978	-1.169872860978993	12.96047093009617	-1.094664804478383	2.583662494537022	-5.604419117069103	7.91103505635751	7.91103505635766	0.05093066399701553	0.1142810222334952	-0.1974872606230018	-1.16816800299886	-5.528555068615874e-08	1.179180772316623e-07	1.228558205690201e-07	2.195274157374701e-08	-1.478021245564395e-07	5.581190654753644e-08	-2.078064955196028e-08
0.03	-0.1621949551842729	0.05732020235240565	0.8974614863271878	0.3834132304952514	-0.2597332430049103	-0.2703372704062074	-0.0153355990094995	0.03583387272344231	0.03583387272348201	-0.1745301324974724	0.1731882600159058	-0.04243676006858371	-0.009915473966152385	-0.1444460014515458	-0.07806546784897669	-0.03507699174290297	0.3890071084915083	-0.03358190048565367	0.07889479798942542	-0.1751264019654414	0.236777422897916	0.2367774228979217	0.000217534858361946	0.001939995317526579	-0.007722063256881745	-0.03620788025650536	0.1318383562754135	-0.08063012306168775	-0.04563614999730681	-0.2672944068081359	0.23987148067152	-0.02063364396620857	-0.08304183373178145	35.4572178171094	-3.455184431254247	7.239544660731438	15.67705234513095	-588.2736250598668	-82.2255067999525	-39.13366134580884	-4.540338808140482	-2.474524245714354	-1.131602433719194	12.30708395411348	-1.063924937457623	2.532983269148385	-5.502032661252821	7.521886212176069	7.521886212176372	-0.006424425865696715	0.03405857363566538	-0.2372628156387802	-1.14619001566033	-7.01147023758548e-08	1.341192005874541e-07	1.407453809509561e-07	3.469889465199259e-08	-2.379774786402067e-07	6.608002715511747e-08	-2.3700794805326e-08
0.04	-0.1638663792889427	0.05641694849277888	0.8970539778024197	0.3879169346913109	-0.2601212568665997	-0.269423227140267	-0.01735529040240096	0.03857698201036965	0.03857698201036917	-0.1745270647231315	0.1732105247236875	-0.04252462033505601	-0.01033358128805063	-0.1895856956066649	-0.1024539356940118	-0.04640049485117088	0.5111032737897554	-0.04394505751004395	0.1037940763625646	-0.2283928415776195	0.311482146258192	0.311482146258202	0.0004086832487408588	0.002504321948753236	-0.009821943664438537	-0.04733095171681988	0.124902544571814	-0.07542122408445306	-0.04460628968346485	-0.2607628159708115	0.2337095936501908	-0.02192242285550291	-0.07738266683581127	33.55545833496522	-2.662731998177585	7.227714981148636	15.94631724113661	-586.8588053786571	-79.46708196741683	-39.21104664437107	-4.537152904678725	-2.406911279239954	-1.141051424223371	12.20383953101635	-1.003810746817305	2.439786077823159	-5.101577072332523	7.476322678256166	7.476322678256922	0.06634082787539348	0.103800878123935	-0.1638482449161121	-1.069266726018766	-8.479031357769839e-08	1.504836846888427e-07	1.581680808329164e-07	4.739718148358201e-08	-3.273896883861544e-07	7.656549736623111e-08	-2.652554070152461e-08
0.05	-0.1659822194227179	0.0552738486560786	0.8965337028283989	0.3936236360552017	-0.260610484930224	-0.2682637960362872	-0.0198947510543773	0.04205684590784081	0.0420568459078452	-0.1745214740282253	0.173238343669375	-0.04263230122306662	-0.01086022819886213	-0.2333352517805042	-0.1260208603971626	-0.05764704979353806	0.6296055739325935	-0.0538229998702925	0.1279722750219053	-0.2791029204739904	0.3841366001065926	0.3841366001065844	0.0007097484919085788	0.003052615757341092	-0.01166936031838628	-0.05791051974096008	0.1180593119595501	-0.073749062782307	-0.04368338452746779	-0.2556373508990564	0.2290604883257771	-0.02023247307925365	-0.07179204072419561	32.26719700895489	-3.173873915229256	7.312359110057588	15.60511357132363	-585.4335701439674	-79.40876481700073	-39.30752182612331	-4.256802464768803	-2.309797796678505	-1.115406205806529	11.57869762935568	-0.9681687703987556	2.388833423481874	-4.996268046589396	7.106907096721418	7.106907096718262	0.01206678079744885	0.02929448665961885	-0.1884609124660557	-1.039156180877145	-9.611427176487472e-08	1.645046500681845e-07	1.701051568322944e-07	5.850052447264044e-08	-3.899320873886108e-07	8.201956380638812e-08	-2.799810307578992e-08
